<?xml version="1.0" encoding="utf-8"?>
<!-- Generator: Adobe Illustrator 25.0.1, SVG Export Plug-In . SVG Version: 6.00 Build 0)  -->
<svg version="1.1" id="Layer_1" xmlns="http://www.w3.org/2000/svg" xmlns:xlink="http://www.w3.org/1999/xlink" x="0px" y="0px"
	 viewBox="0 0 199.2 66" style="enable-background:new 0 0 199.2 66;" xml:space="preserve">
<style type="text/css">
	.st0{fill:#2E386B;}
	.st1{clip-path:url(#SVGID_2_);}
	.st2{enable-background:new    ;}
	.st3{fill:#FFFFFF;}
</style>
<g>
	<g>
		<path id="Rectangle_77-2" class="st0" d="M32.9,0h15v36c0,16.6-13.4,30-30,30h-15V30C2.9,13.4,16.3,0,32.9,0z"/>
		<g>
			<g>
				<defs>
					<path id="SVGID_1_" d="M32.9,0h15v36c0,16.6-13.4,30-30,30h-15V30C2.9,13.4,16.3,0,32.9,0z"/>
				</defs>
				<clipPath id="SVGID_2_">
					<use xlink:href="#SVGID_1_"  style="overflow:visible;"/>
				</clipPath>
				<g id="Mask_Group_1" class="st1">
					<g class="st2">
						<path class="st3" d="M34.9,39.2c0-5-0.2-10.3-0.6-16c-0.4-6-0.6-10.4-0.6-13.2L37,4.8l-0.1,4.8c0,3.5,0.1,6.7,0.2,9.6
							c0.2,4.5,0.3,7.7,0.3,9.6C37.2,34.8,36.5,38.3,34.9,39.2z"/>
					</g>
					<g class="st2">
						<path class="st3" d="M43.6,40c0,1.4-1.5,2.8-4.4,4.2c-2.5,1.1-4.6,1.6-6.2,1.6c-4.1,0-7.5-1-10-3c-2.7-2.2-4.1-4.8-4.1-8
							c0-2.9,1.4-5.7,4.3-8.4c2.4-2,5.2-3.4,8.3-4.1c-0.4-0.1-1.2-0.4-2.3-0.9c-0.9-0.4-1.7-0.6-2.3-0.6c-2.8,0-4.8,0.6-5.9,1.8
							c-0.4,0.4-0.6,0.6-0.8,0.6C20,23.2,20,23,20,22.6c0-1.6,0.9-3,2.7-4.2c1.6-1,3.3-1.5,5-1.5c0.5,0,2.2,0.6,5.1,1.8
							s5.3,1.8,7,1.8L38.6,24c-3.9,0-7.5,0.9-10.8,2.6c-4,2.1-6,4.7-6,7.8c0,2.6,1.3,4.8,3.9,6.4c2.4,1.2,4.8,1.8,7.1,1.8
							c2.2,0,4.4-0.4,6.8-1.2S43.3,40,43.6,40z"/>
					</g>
					<g class="st2">
						<path class="st3" d="M24.9,34l1.7-4.5c3,2.8,4.4,7,4.4,12.8c0,2.6-0.5,5.1-1.5,7.5s-2.4,4.4-4.2,5.9c-1.8,1.5-3.5,2.3-5.1,2.3
							c-1.9,0-3.4-0.2-4.5-0.5L10.8,56c-0.8-0.2-1.3-0.6-1.3-1.1s0.2-0.7,0.7-0.7c0.1,0,0.9,0.1,2.3,0.4c1.4,0.3,2.9,0.4,4.5,0.4
							c1.8,0,3.7-0.7,5.8-2.1c2.1-1.4,3.7-3,4.9-4.7c1.2-1.7,1.8-3,1.8-4C29.4,40.6,27.9,37.1,24.9,34z"/>
					</g>
					<g class="st2">
						<path class="st3" d="M15.5,44.7c-1.3,0.9-2.7,1.4-4,1.4c-1.2,0-2.3-0.2-3.2-0.6S7,44.5,7,43.7c0-2.2,0.5-4.6,1.6-7.1
							s2.4-3.8,3.9-3.8s2.8,1.2,3.7,3.5c0.9,2.3,1.4,4.8,1.4,7.3s-0.3,4.6-0.8,6.1c-0.6,1.6-1.5,2.7-2.9,3.3s-4.2,1-8.6,1h-7.1
							c-5.1,0-8.4-0.5-9.9-1.5s-2.2-2.4-2.2-4.2c0-1.5,0.4-3.2,1.2-5c0.8-1.9,1.5-2.8,2.3-2.8c0.2,0,0.3,0.2,0.3,0.5s-0.3,1-0.8,2.1
							s-0.8,2-0.8,2.7c0,1.6,0.8,2.9,2.3,3.7c1.5,0.9,4.6,1.3,9.4,1.3h4.5c5.5,0,8.8-0.4,9.8-1.3s1.5-1.9,1.5-3.3
							C15.6,46,15.6,45.4,15.5,44.7z M13.8,25.2l-2.9,2.9L8,25.2l2.9-2.9L13.8,25.2z M14.6,41.7c-0.7-3.7-1.7-5.5-2.9-5.5
							c-0.8,0-1.6,0.6-2.1,1.8s-0.9,2.3-0.9,3.4c0,1,0.8,1.5,2.4,1.5C11.9,42.8,13.1,42.4,14.6,41.7z"/>
					</g>
				</g>
			</g>
		</g>
	</g>
	<g>
		<path class="st0" d="M63.2,23.6H57l-1.4,3.9h-2l5.7-14.9H61l5.7,14.9h-2L63.2,23.6z M57.6,22h5.1l-2.5-7L57.6,22z"/>
		<path class="st0" d="M70.3,17.7c0.8-1,1.9-1.5,3.3-1.5c2.3,0,3.5,1.3,3.5,4v7.3h-1.9v-7.3c0-0.8-0.2-1.4-0.5-1.8
			c-0.4-0.4-0.9-0.6-1.7-0.6c-0.6,0-1.2,0.2-1.6,0.5s-0.8,0.8-1.1,1.3v7.9h-1.9V11.7h1.9C70.3,11.7,70.3,17.7,70.3,17.7z"/>
		<path class="st0" d="M85.3,18.1C85,18,84.7,18,84.4,18c-1.2,0-2.1,0.5-2.5,1.6v7.9H80V16.4h1.8v1.3c0.6-1,1.5-1.5,2.6-1.5
			c0.4,0,0.6,0,0.8,0.1L85.3,18.1L85.3,18.1z"/>
		<path class="st0" d="M93.9,26.4c-0.7,0.9-1.8,1.3-3.3,1.3c-1.2,0-2.1-0.3-2.7-1C87.3,26,87,24.9,87,23.6v-7.2h1.9v7.2
			c0,1.7,0.7,2.5,2.1,2.5s2.4-0.5,2.9-1.6v-8.1h1.9v11.1H94L93.9,26.4z"/>
		<path class="st0" d="M99.6,27.5v-9.6h-1.8v-1.5h1.8v-1.1c0-1.2,0.3-2.1,1-2.8s1.5-1,2.7-1c0.4,0,0.9,0.1,1.3,0.2l-0.1,1.5
			c-0.3-0.1-0.7-0.1-1-0.1c-0.6,0-1.1,0.2-1.4,0.5s-0.5,0.9-0.5,1.5v1.2h2.4v1.5h-2.4v9.6h-2V27.5z"/>
		<path class="st0" d="M119.7,23.6h-6.3l-1.4,3.9h-2l5.7-14.9h1.7l5.7,14.9h-2L119.7,23.6z M114,22h5.1l-2.5-7L114,22z"/>
		<path class="st0" d="M129.3,26.1c0.7,0,1.3-0.2,1.8-0.6s0.8-0.9,0.8-1.5h1.8c0,0.6-0.3,1.2-0.7,1.8s-0.9,1-1.6,1.4
			c-0.7,0.3-1.4,0.5-2.1,0.5c-1.5,0-2.7-0.5-3.6-1.5s-1.3-2.4-1.3-4.1v-0.3c0-1.1,0.2-2,0.6-2.9s1-1.5,1.7-2s1.6-0.7,2.6-0.7
			c1.2,0,2.3,0.4,3.1,1.1s1.3,1.7,1.3,2.9h-1.8c-0.1-0.7-0.3-1.3-0.8-1.8s-1.1-0.7-1.8-0.7c-1,0-1.7,0.3-2.2,1s-0.8,1.7-0.8,3v0.4
			c0,1.3,0.3,2.3,0.8,3S128.3,26.1,129.3,26.1z"/>
		<path class="st0" d="M142.7,27.5c-0.1-0.2-0.2-0.6-0.3-1.2c-0.9,0.9-1.9,1.4-3.2,1.4c-1.1,0-2-0.3-2.7-0.9s-1.1-1.4-1.1-2.4
			c0-1.2,0.4-2.1,1.3-2.7c0.9-0.6,2.1-1,3.7-1h1.8v-0.9c0-0.7-0.2-1.2-0.6-1.6c-0.4-0.4-1-0.6-1.8-0.6c-0.7,0-1.2,0.2-1.7,0.5
			s-0.7,0.8-0.7,1.2h-1.9c0-0.6,0.2-1.1,0.6-1.6c0.4-0.5,0.9-0.9,1.6-1.2c0.7-0.3,1.4-0.5,2.2-0.5c1.3,0,2.3,0.3,3,1
			s1.1,1.5,1.1,2.6v5.1c0,1,0.1,1.8,0.4,2.4v0.2h-1.7V27.5z M139.5,26c0.6,0,1.2-0.2,1.7-0.5s0.9-0.7,1.2-1.2V22h-1.5
			c-2.3,0-3.5,0.7-3.5,2c0,0.6,0.2,1.1,0.6,1.4S138.9,26,139.5,26z"/>
		<path class="st0" d="M146.8,21.8c0-1.7,0.4-3.1,1.2-4.1s1.9-1.6,3.2-1.6s2.3,0.4,3.1,1.3v-5.8h1.9v15.8h-1.7l-0.1-1.2
			c-0.8,0.9-1.8,1.4-3.2,1.4c-1.3,0-2.3-0.5-3.1-1.6S146.9,23.6,146.8,21.8L146.8,21.8L146.8,21.8z M148.7,22.1c0,1.3,0.3,2.2,0.8,3
			s1.2,1.1,2.2,1.1c1.2,0,2.1-0.5,2.6-1.6v-5.1c-0.6-1-1.4-1.6-2.6-1.6c-0.9,0-1.7,0.4-2.2,1.1S148.7,20.6,148.7,22.1z"/>
		<path class="st0" d="M163.7,27.7c-1.5,0-2.7-0.5-3.7-1.5s-1.4-2.3-1.4-4v-0.3c0-1.1,0.2-2.1,0.6-2.9c0.4-0.9,1-1.5,1.8-2
			s1.6-0.7,2.5-0.7c1.4,0,2.6,0.5,3.4,1.4s1.2,2.3,1.2,4.1v0.8h-7.5c0,1.1,0.3,2,1,2.7c0.6,0.7,1.4,1,2.3,1c0.7,0,1.2-0.1,1.7-0.4
			s0.9-0.6,1.2-1.1l1.2,0.9C166.9,27,165.5,27.7,163.7,27.7z M163.5,17.7c-0.8,0-1.4,0.3-1.9,0.8s-0.8,1.3-1,2.3h5.6v-0.1
			c-0.1-1-0.3-1.7-0.8-2.2S164.2,17.7,163.5,17.7z"/>
		<path class="st0" d="M172,16.4l0.1,1.2c0.8-1,1.9-1.4,3.3-1.4c1.6,0,2.6,0.6,3.2,1.8c0.4-0.5,0.8-1,1.4-1.3
			c0.6-0.3,1.3-0.5,2.1-0.5c2.4,0,3.7,1.3,3.7,3.9v7.4h-1.9v-7.3c0-0.8-0.2-1.4-0.5-1.8c-0.4-0.4-1-0.6-1.8-0.6
			c-0.7,0-1.3,0.2-1.8,0.6s-0.7,1-0.8,1.7v7.4h-2v-7.3c0-1.6-0.8-2.4-2.4-2.4c-1.2,0-2.1,0.5-2.6,1.6v8.1h-1.9V16.4H172z"/>
		<path class="st0" d="M192.2,24.7l2.6-8.3h2l-4.5,12.8c-0.7,1.8-1.8,2.8-3.3,2.8h-0.4l-0.7-0.1v-1.5h0.5c0.6,0,1.1-0.1,1.5-0.4
			s0.7-0.7,0.9-1.4l0.4-1.1l-4-11h2.1L192.2,24.7z"/>
	</g>
	<g>
		<path class="st0" d="M59.5,42.8h-4.3v4.3h-0.8v-9.2h5.7v0.7h-4.9v3.6h4.3V42.8z"/>
		<path class="st0" d="M65.7,47.1c-0.1-0.2-0.1-0.5-0.1-1c-0.3,0.3-0.6,0.6-1,0.8s-0.8,0.3-1.3,0.3c-0.7,0-1.2-0.2-1.6-0.6
			c-0.4-0.4-0.6-0.8-0.6-1.4c0-0.7,0.3-1.2,0.8-1.6c0.6-0.4,1.3-0.6,2.3-0.6h1.4v-0.8c0-0.5-0.2-0.9-0.5-1.2s-0.7-0.4-1.3-0.4
			c-0.5,0-1,0.1-1.3,0.4c-0.3,0.3-0.5,0.6-0.5,1h-0.8c0-0.5,0.3-1,0.8-1.4s1.1-0.6,1.9-0.6s1.4,0.2,1.8,0.6c0.4,0.4,0.7,0.9,0.7,1.6
			v3.3c0,0.7,0.1,1.2,0.2,1.5v0.1C66.6,47.1,65.7,47.1,65.7,47.1z M63.3,46.5c0.5,0,1-0.1,1.4-0.4c0.4-0.2,0.7-0.6,0.9-1v-1.5h-1.4
			c-0.8,0-1.4,0.1-1.8,0.4c-0.4,0.3-0.6,0.6-0.6,1.1c0,0.4,0.1,0.7,0.4,1C62.5,46.4,62.8,46.5,63.3,46.5z"/>
		<path class="st0" d="M72.4,45.3c0-0.4-0.2-0.7-0.5-0.9s-0.8-0.4-1.4-0.5s-1.1-0.3-1.4-0.4c-0.3-0.2-0.6-0.4-0.7-0.6
			c-0.2-0.2-0.2-0.5-0.2-0.9c0-0.5,0.2-1,0.7-1.3s1-0.5,1.7-0.5c0.8,0,1.4,0.2,1.8,0.6c0.5,0.4,0.7,0.9,0.7,1.5h-0.8
			c0-0.4-0.2-0.7-0.5-1s-0.8-0.4-1.3-0.4s-0.9,0.1-1.2,0.3c-0.3,0.2-0.5,0.5-0.5,0.9c0,0.3,0.1,0.6,0.4,0.8s0.7,0.4,1.4,0.5
			c0.7,0.2,1.2,0.3,1.5,0.5s0.6,0.4,0.7,0.6c0.2,0.3,0.2,0.6,0.2,0.9c0,0.6-0.2,1-0.7,1.4c-0.5,0.3-1.1,0.5-1.8,0.5
			c-0.8,0-1.4-0.2-1.9-0.6c-0.5-0.4-0.7-0.9-0.7-1.5h0.8c0,0.4,0.2,0.8,0.6,1c0.3,0.2,0.8,0.4,1.4,0.4c0.5,0,1-0.1,1.3-0.3
			C72.3,46,72.4,45.7,72.4,45.3z"/>
		<path class="st0" d="M76.1,38.4v1.8h1.4v0.6h-1.4v4.6c0,0.4,0.1,0.7,0.2,0.9s0.4,0.3,0.7,0.3c0.1,0,0.3,0,0.6-0.1v0.6
			c-0.2,0.1-0.5,0.1-0.8,0.1c-0.5,0-0.9-0.2-1.1-0.5s-0.4-0.7-0.4-1.3v-4.6H74v-0.6h1.3v-1.8H76.1z"/>
		<path class="st0" d="M81.7,47.2c-0.6,0-1.1-0.1-1.6-0.4c-0.5-0.3-0.8-0.7-1.1-1.2c-0.3-0.5-0.4-1.1-0.4-1.7v-0.3
			c0-0.7,0.1-1.3,0.4-1.8s0.6-0.9,1.1-1.2s1-0.5,1.5-0.5c0.8,0,1.5,0.3,2,0.9c0.5,0.6,0.7,1.3,0.7,2.3v0.4h-4.9v0.1
			c0,0.8,0.2,1.4,0.7,1.9c0.4,0.5,1,0.8,1.7,0.8c0.4,0,0.8-0.1,1.1-0.2c0.3-0.1,0.6-0.4,0.8-0.7l0.5,0.4
			C83.6,46.8,82.8,47.2,81.7,47.2z M81.6,40.7c-0.6,0-1.1,0.2-1.4,0.6c-0.4,0.4-0.6,1-0.7,1.7h4.1l0,0c0-0.7-0.2-1.2-0.6-1.6
			C82.6,40.9,82.2,40.7,81.6,40.7z"/>
		<path class="st0" d="M89,40.9c-0.2,0-0.3,0-0.5,0c-0.5,0-0.9,0.1-1.2,0.4c-0.3,0.3-0.6,0.6-0.7,1.2v4.7h-0.8v-6.9h0.7v1.1
			c0.4-0.8,1-1.2,1.9-1.2c0.2,0,0.4,0,0.5,0.1L89,40.9z"/>
		<path class="st0" d="M94.2,47.1h-0.8v-9.8h0.8V47.1z"/>
		<path class="st0" d="M98.9,47.2c-0.6,0-1.1-0.1-1.6-0.4c-0.5-0.3-0.8-0.7-1.1-1.2c-0.3-0.5-0.4-1.1-0.4-1.7v-0.3
			c0-0.7,0.1-1.3,0.4-1.8s0.6-0.9,1.1-1.2s1-0.5,1.5-0.5c0.8,0,1.5,0.3,2,0.9c0.5,0.6,0.7,1.3,0.7,2.3v0.4h-4.9v0.1
			c0,0.8,0.2,1.4,0.7,1.9c0.4,0.5,1,0.8,1.7,0.8c0.4,0,0.8-0.1,1.1-0.2c0.3-0.1,0.6-0.4,0.8-0.7l0.5,0.4
			C100.8,46.8,99.9,47.2,98.9,47.2z M98.7,40.7c-0.6,0-1.1,0.2-1.4,0.6c-0.4,0.4-0.6,1-0.7,1.7h4.1l0,0c0-0.7-0.2-1.2-0.6-1.6
			C99.8,40.9,99.3,40.7,98.7,40.7z"/>
		<path class="st0" d="M107.3,47.1c-0.1-0.2-0.1-0.5-0.1-1c-0.3,0.3-0.6,0.6-1,0.8s-0.8,0.3-1.3,0.3c-0.7,0-1.2-0.2-1.6-0.6
			c-0.4-0.4-0.6-0.8-0.6-1.4c0-0.7,0.3-1.2,0.8-1.6c0.6-0.4,1.3-0.6,2.3-0.6h1.4v-0.8c0-0.5-0.2-0.9-0.5-1.2s-0.7-0.4-1.3-0.4
			c-0.5,0-1,0.1-1.3,0.4c-0.3,0.3-0.5,0.6-0.5,1h-0.8c0-0.5,0.3-1,0.8-1.4s1.1-0.6,1.9-0.6s1.4,0.2,1.8,0.6c0.4,0.4,0.7,0.9,0.7,1.6
			v3.3c0,0.7,0.1,1.2,0.2,1.5v0.1C108.2,47.1,107.3,47.1,107.3,47.1z M104.9,46.5c0.5,0,1-0.1,1.4-0.4c0.4-0.2,0.7-0.6,0.9-1v-1.5
			h-1.4c-0.8,0-1.3,0.1-1.8,0.4c-0.4,0.3-0.6,0.6-0.6,1.1c0,0.4,0.1,0.7,0.4,1C104.1,46.4,104.4,46.5,104.9,46.5z"/>
		<path class="st0" d="M113.1,40.9c-0.2,0-0.3,0-0.5,0c-0.5,0-0.9,0.1-1.2,0.4s-0.6,0.6-0.7,1.2v4.7h-0.8v-6.9h0.7v1.1
			c0.4-0.8,1-1.2,1.9-1.2c0.2,0,0.4,0,0.5,0.1L113.1,40.9z"/>
		<path class="st0" d="M115,40.2v1.2c0.3-0.4,0.6-0.7,1-1c0.4-0.2,0.8-0.3,1.3-0.3c0.7,0,1.3,0.2,1.6,0.6c0.4,0.4,0.5,1,0.5,1.9v4.5
			h-0.8v-4.5c0-0.6-0.1-1.1-0.4-1.4c-0.3-0.3-0.7-0.5-1.2-0.5s-0.9,0.1-1.2,0.4c-0.4,0.3-0.6,0.7-0.8,1.2V47h-0.8v-6.9L115,40.2
			L115,40.2z"/>
		<path class="st0" d="M121.4,38.2c0-0.1,0-0.3,0.1-0.4c0.1-0.1,0.2-0.1,0.4-0.1c0.2,0,0.3,0,0.4,0.1s0.1,0.2,0.1,0.4s0,0.3-0.1,0.4
			c-0.1,0.1-0.2,0.1-0.4,0.1c-0.2,0-0.3,0-0.4-0.1C121.4,38.5,121.4,38.4,121.4,38.2z M122.3,47.1h-0.8v-6.9h0.8V47.1z"/>
		<path class="st0" d="M125.1,40.2v1.2c0.3-0.4,0.6-0.7,1-1c0.4-0.2,0.8-0.3,1.3-0.3c0.7,0,1.3,0.2,1.6,0.6c0.4,0.4,0.5,1,0.5,1.9
			v4.5h-0.8v-4.5c0-0.6-0.1-1.1-0.4-1.4c-0.3-0.3-0.7-0.5-1.2-0.5s-0.9,0.1-1.2,0.4c-0.4,0.3-0.6,0.7-0.8,1.2V47h-0.8v-6.9
			L125.1,40.2L125.1,40.2z"/>
		<path class="st0" d="M131.2,43.6c0-1.1,0.2-1.9,0.7-2.6c0.5-0.6,1.1-0.9,1.9-0.9c0.9,0,1.6,0.4,2.1,1.1v-1h0.7v6.7
			c0,0.9-0.2,1.6-0.7,2.1s-1.2,0.8-2,0.8c-0.5,0-0.9-0.1-1.4-0.3c-0.4-0.2-0.8-0.5-1-0.9l0.4-0.5c0.5,0.7,1.2,1,1.9,1
			c0.6,0,1.1-0.2,1.5-0.6c0.4-0.4,0.5-0.9,0.6-1.6V46c-0.5,0.7-1.2,1-2.1,1c-0.8,0-1.4-0.3-1.9-1s-0.7-1.5-0.7-2.6V43.6z
			 M131.9,43.7c0,0.9,0.2,1.6,0.5,2.1c0.4,0.5,0.8,0.8,1.5,0.8c0.9,0,1.6-0.4,2-1.3v-3.2c-0.2-0.4-0.4-0.8-0.8-1
			c-0.3-0.2-0.7-0.3-1.2-0.3c-0.6,0-1.1,0.3-1.5,0.8C132.1,42,131.9,42.7,131.9,43.7z"/>
		<path class="st0" d="M145,40.9c-0.2,0-0.3,0-0.5,0c-0.5,0-0.9,0.1-1.2,0.4s-0.6,0.6-0.7,1.2v4.7h-0.8v-6.9h0.7v1.1
			c0.4-0.8,1-1.2,1.9-1.2c0.2,0,0.4,0,0.5,0.1L145,40.9z"/>
		<path class="st0" d="M148.9,47.2c-0.6,0-1.1-0.1-1.6-0.4c-0.5-0.3-0.8-0.7-1.1-1.2s-0.4-1.1-0.4-1.7v-0.3c0-0.7,0.1-1.3,0.4-1.8
			c0.3-0.5,0.6-0.9,1.1-1.2s1-0.5,1.5-0.5c0.8,0,1.5,0.3,2,0.9c0.5,0.6,0.7,1.3,0.7,2.3v0.4h-4.9v0.1c0,0.8,0.2,1.4,0.7,1.9
			c0.4,0.5,1,0.8,1.7,0.8c0.4,0,0.8-0.1,1.1-0.2c0.3-0.1,0.6-0.4,0.8-0.7l0.5,0.4C150.8,46.8,149.9,47.2,148.9,47.2z M148.7,40.7
			c-0.6,0-1.1,0.2-1.4,0.6s-0.6,1-0.7,1.7h4.1l0,0c0-0.7-0.2-1.2-0.6-1.6C149.8,40.9,149.3,40.7,148.7,40.7z"/>
		<path class="st0" d="M157,45.3c0-0.4-0.2-0.7-0.5-0.9s-0.8-0.4-1.4-0.5s-1.1-0.3-1.4-0.4c-0.3-0.2-0.6-0.4-0.7-0.6
			s-0.2-0.5-0.2-0.9c0-0.5,0.2-1,0.7-1.3s1-0.5,1.7-0.5c0.8,0,1.4,0.2,1.8,0.6c0.5,0.4,0.7,0.9,0.7,1.5H157c0-0.4-0.2-0.7-0.5-1
			s-0.8-0.4-1.3-0.4s-0.9,0.1-1.2,0.3s-0.5,0.5-0.5,0.9c0,0.3,0.1,0.6,0.4,0.8c0.3,0.2,0.7,0.4,1.4,0.5c0.7,0.2,1.2,0.3,1.5,0.5
			s0.6,0.4,0.7,0.6c0.2,0.3,0.2,0.6,0.2,0.9c0,0.6-0.2,1-0.7,1.4c-0.5,0.3-1.1,0.5-1.8,0.5c-0.8,0-1.4-0.2-1.9-0.6
			c-0.5-0.4-0.7-0.9-0.7-1.5h0.8c0,0.4,0.2,0.8,0.6,1c0.3,0.2,0.8,0.4,1.4,0.4c0.5,0,1-0.1,1.3-0.3C156.9,46,157,45.7,157,45.3z"/>
		<path class="st0" d="M163.9,46.2c-0.5,0.7-1.2,1-2.2,1c-0.7,0-1.3-0.2-1.7-0.6c-0.4-0.4-0.6-1.1-0.6-1.9v-4.5h0.8v4.4
			c0,1.3,0.5,2,1.6,2s1.8-0.5,2.1-1.4v-5h0.8v6.9H164L163.9,46.2z"/>
		<path class="st0" d="M167.5,47.1h-0.8v-9.8h0.8V47.1z"/>
		<path class="st0" d="M170.8,38.4v1.8h1.4v0.6h-1.4v4.6c0,0.4,0.1,0.7,0.2,0.9s0.4,0.3,0.7,0.3c0.1,0,0.3,0,0.6-0.1v0.6
			c-0.2,0.1-0.5,0.1-0.8,0.1c-0.5,0-0.9-0.2-1.1-0.5c-0.2-0.3-0.4-0.7-0.4-1.3v-4.6h-1.3v-0.6h1.3v-1.8H170.8z"/>
		<path class="st0" d="M177.9,45.3c0-0.4-0.2-0.7-0.5-0.9s-0.8-0.4-1.4-0.5s-1.1-0.3-1.4-0.4c-0.3-0.2-0.6-0.4-0.7-0.6
			s-0.2-0.5-0.2-0.9c0-0.5,0.2-1,0.7-1.3s1-0.5,1.7-0.5c0.8,0,1.4,0.2,1.8,0.6c0.5,0.4,0.7,0.9,0.7,1.5h-0.8c0-0.4-0.2-0.7-0.5-1
			s-0.8-0.4-1.3-0.4s-0.9,0.1-1.2,0.3s-0.5,0.5-0.5,0.9c0,0.3,0.1,0.6,0.4,0.8c0.3,0.2,0.7,0.4,1.4,0.5c0.7,0.2,1.2,0.3,1.5,0.5
			s0.6,0.4,0.7,0.6c0.2,0.3,0.2,0.6,0.2,0.9c0,0.6-0.2,1-0.7,1.4c-0.5,0.3-1.1,0.5-1.8,0.5c-0.8,0-1.4-0.2-1.9-0.6
			c-0.5-0.4-0.7-0.9-0.7-1.5h0.8c0,0.4,0.2,0.8,0.6,1c0.3,0.2,0.8,0.4,1.4,0.4c0.5,0,1-0.1,1.3-0.3C177.7,46,177.9,45.7,177.9,45.3z
			"/>
	</g>
</g>
</svg>
