<svg xmlns="http://www.w3.org/2000/svg" width="76.136" height="67.906" viewBox="0 0 76.136 67.906">
  <g id="Group_710" data-name="Group 710" transform="translate(-507.385 -676.241)">
    <path id="Rectangle_88" data-name="Rectangle 88" d="M0,0H0A38.863,38.863,0,0,1,38.863,38.863v0a0,0,0,0,1,0,0h0A38.863,38.863,0,0,1,0,0V0A0,0,0,0,1,0,0Z" transform="matrix(0.999, -0.035, 0.035, 0.999, 507.385, 693.014)" fill="#41efcd" opacity="0.2"/>
    <path id="Rectangle_89" data-name="Rectangle 89" d="M0,0H0A38.863,38.863,0,0,1,38.863,38.863v0a0,0,0,0,1,0,0h0A38.863,38.863,0,0,1,0,0V0A0,0,0,0,1,0,0Z" transform="translate(582.844 691.658) rotate(89)" fill="#41efcd" opacity="0.2"/>
    <path id="Rectangle_93" data-name="Rectangle 93" d="M0,0H0A38.863,38.863,0,0,1,38.863,38.863v0a0,0,0,0,1,0,0h0A38.863,38.863,0,0,1,0,0V0A0,0,0,0,1,0,0Z" transform="matrix(0.695, 0.719, -0.719, 0.695, 546.858, 676.241)" fill="#41efcd" opacity="0.5"/>
    <line id="Line_22" data-name="Line 22" y2="14.235" transform="translate(546.101 729.912)" fill="none" stroke="#7becce" stroke-width="1"/>
  </g>
</svg>
