<svg xmlns="http://www.w3.org/2000/svg" width="408.042" height="342.438" viewBox="0 0 408.042 342.438">
  <g id="Group_711" data-name="Group 711" transform="translate(-31 -176)" opacity="0.16">
    <path id="Path_1087" data-name="Path 1087" d="M-28,0H90.308A120.723,120.723,0,0,1,211.031,120.723v50.7H-28Z" transform="translate(59 176)" fill="#80aeff"/>
    <path id="Rectangle_90" data-name="Rectangle 90" d="M50,0h90a0,0,0,0,1,0,0V92a50,50,0,0,1-50,50H0a0,0,0,0,1,0,0V50A50,50,0,0,1,50,0Z" transform="translate(299.042 176.438)" fill="#ffd983"/>
    <path id="Rectangle_101" data-name="Rectangle 101" d="M0,0H169a0,0,0,0,1,0,0V119a50,50,0,0,1-50,50H0a0,0,0,0,1,0,0V0A0,0,0,0,1,0,0Z" transform="translate(270.042 347.438)" fill="#ffb6bd"/>
    <circle id="Ellipse_180" data-name="Ellipse 180" cx="71" cy="71" r="71" transform="translate(99.042 376.438)" fill="#41efcd"/>
  </g>
</svg>
